<mxfile host="app.diagrams.net" modified="2021-03-21T10:51:23.032Z" agent="5.0 (Macintosh; Intel Mac OS X 11_2_3) AppleWebKit/537.36 (KHTML, like Gecko) Chrome/89.0.4389.90 Safari/537.36 Edg/89.0.774.57" etag="bp7UiUZDjSaEHhAjR3LA" version="14.4.9" type="github" pages="3">
  <diagram name="Page-1" id="74e2e168-ea6b-b213-b513-2b3c1d86103e">
    <mxGraphModel dx="1426" dy="826" grid="1" gridSize="10" guides="1" tooltips="1" connect="1" arrows="1" fold="1" page="1" pageScale="1" pageWidth="1100" pageHeight="850" background="#ffffff" math="0" shadow="0">
      <root>
        <mxCell id="0" />
        <mxCell id="1" parent="0" />
        <mxCell id="77e6c97f196da883-1" value="Pool" style="swimlane;html=1;childLayout=stackLayout;startSize=20;rounded=0;shadow=0;labelBackgroundColor=none;strokeWidth=1;fontFamily=Verdana;fontSize=8;align=center;" parent="1" vertex="1">
          <mxGeometry x="70" y="40" width="960" height="750" as="geometry" />
        </mxCell>
        <mxCell id="77e6c97f196da883-2" value="Lane 1" style="swimlane;html=1;startSize=20;" parent="77e6c97f196da883-1" vertex="1">
          <mxGeometry y="20" width="160" height="730" as="geometry" />
        </mxCell>
        <mxCell id="77e6c97f196da883-8" value="" style="rounded=1;whiteSpace=wrap;html=1;shadow=0;labelBackgroundColor=none;strokeWidth=1;fontFamily=Verdana;fontSize=8;align=center;" parent="77e6c97f196da883-2" vertex="1">
          <mxGeometry x="20" y="65" width="100" height="60" as="geometry" />
        </mxCell>
        <mxCell id="77e6c97f196da883-9" value="" style="rounded=1;whiteSpace=wrap;html=1;shadow=0;labelBackgroundColor=none;strokeWidth=1;fontFamily=Verdana;fontSize=8;align=center;" parent="77e6c97f196da883-2" vertex="1">
          <mxGeometry x="20" y="155" width="100" height="60" as="geometry" />
        </mxCell>
        <mxCell id="77e6c97f196da883-10" value="" style="rounded=1;whiteSpace=wrap;html=1;shadow=0;labelBackgroundColor=none;strokeWidth=1;fontFamily=Verdana;fontSize=8;align=center;" parent="77e6c97f196da883-2" vertex="1">
          <mxGeometry x="30" y="560" width="100" height="60" as="geometry" />
        </mxCell>
        <mxCell id="77e6c97f196da883-26" style="edgeStyle=orthogonalEdgeStyle;rounded=1;html=1;labelBackgroundColor=none;startArrow=none;startFill=0;startSize=5;endArrow=classicThin;endFill=1;endSize=5;jettySize=auto;orthogonalLoop=1;strokeWidth=1;fontFamily=Verdana;fontSize=8" parent="77e6c97f196da883-1" source="77e6c97f196da883-8" target="77e6c97f196da883-11" edge="1">
          <mxGeometry relative="1" as="geometry" />
        </mxCell>
        <mxCell id="77e6c97f196da883-27" style="edgeStyle=orthogonalEdgeStyle;rounded=1;html=1;labelBackgroundColor=none;startArrow=none;startFill=0;startSize=5;endArrow=classicThin;endFill=1;endSize=5;jettySize=auto;orthogonalLoop=1;strokeWidth=1;fontFamily=Verdana;fontSize=8" parent="77e6c97f196da883-1" source="77e6c97f196da883-11" target="77e6c97f196da883-9" edge="1">
          <mxGeometry relative="1" as="geometry">
            <Array as="points">
              <mxPoint x="240" y="155" />
              <mxPoint x="70" y="155" />
            </Array>
          </mxGeometry>
        </mxCell>
        <mxCell id="77e6c97f196da883-28" style="edgeStyle=orthogonalEdgeStyle;rounded=1;html=1;labelBackgroundColor=none;startArrow=none;startFill=0;startSize=5;endArrow=classicThin;endFill=1;endSize=5;jettySize=auto;orthogonalLoop=1;strokeWidth=1;fontFamily=Verdana;fontSize=8" parent="77e6c97f196da883-1" source="77e6c97f196da883-9" target="77e6c97f196da883-12" edge="1">
          <mxGeometry relative="1" as="geometry" />
        </mxCell>
        <mxCell id="77e6c97f196da883-30" style="edgeStyle=orthogonalEdgeStyle;rounded=1;html=1;labelBackgroundColor=none;startArrow=none;startFill=0;startSize=5;endArrow=classicThin;endFill=1;endSize=5;jettySize=auto;orthogonalLoop=1;strokeWidth=1;fontFamily=Verdana;fontSize=8" parent="77e6c97f196da883-1" source="77e6c97f196da883-13" target="77e6c97f196da883-9" edge="1">
          <mxGeometry relative="1" as="geometry" />
        </mxCell>
        <mxCell id="77e6c97f196da883-31" style="edgeStyle=orthogonalEdgeStyle;rounded=1;html=1;labelBackgroundColor=none;startArrow=none;startFill=0;startSize=5;endArrow=classicThin;endFill=1;endSize=5;jettySize=auto;orthogonalLoop=1;strokeWidth=1;fontFamily=Verdana;fontSize=8" parent="77e6c97f196da883-1" source="77e6c97f196da883-16" target="77e6c97f196da883-9" edge="1">
          <mxGeometry relative="1" as="geometry" />
        </mxCell>
        <mxCell id="77e6c97f196da883-32" style="edgeStyle=orthogonalEdgeStyle;rounded=1;html=1;labelBackgroundColor=none;startArrow=none;startFill=0;startSize=5;endArrow=classicThin;endFill=1;endSize=5;jettySize=auto;orthogonalLoop=1;strokeWidth=1;fontFamily=Verdana;fontSize=8" parent="77e6c97f196da883-1" source="77e6c97f196da883-20" target="77e6c97f196da883-9" edge="1">
          <mxGeometry relative="1" as="geometry">
            <Array as="points">
              <mxPoint x="20" y="690" />
              <mxPoint x="20" y="370" />
              <mxPoint x="70" y="370" />
            </Array>
          </mxGeometry>
        </mxCell>
        <mxCell id="77e6c97f196da883-33" style="edgeStyle=orthogonalEdgeStyle;rounded=1;html=1;labelBackgroundColor=none;startArrow=none;startFill=0;startSize=5;endArrow=classicThin;endFill=1;endSize=5;jettySize=auto;orthogonalLoop=1;strokeWidth=1;fontFamily=Verdana;fontSize=8" parent="77e6c97f196da883-1" source="77e6c97f196da883-13" target="77e6c97f196da883-15" edge="1">
          <mxGeometry relative="1" as="geometry" />
        </mxCell>
        <mxCell id="77e6c97f196da883-39" style="edgeStyle=orthogonalEdgeStyle;rounded=1;html=1;labelBackgroundColor=none;startArrow=none;startFill=0;startSize=5;endArrow=classicThin;endFill=1;endSize=5;jettySize=auto;orthogonalLoop=1;strokeWidth=1;fontFamily=Verdana;fontSize=8" parent="77e6c97f196da883-1" source="77e6c97f196da883-20" target="77e6c97f196da883-23" edge="1">
          <mxGeometry relative="1" as="geometry" />
        </mxCell>
        <mxCell id="77e6c97f196da883-40" style="edgeStyle=orthogonalEdgeStyle;rounded=1;html=1;labelBackgroundColor=none;startArrow=none;startFill=0;startSize=5;endArrow=classicThin;endFill=1;endSize=5;jettySize=auto;orthogonalLoop=1;strokeWidth=1;fontFamily=Verdana;fontSize=8" parent="77e6c97f196da883-1" source="77e6c97f196da883-23" target="77e6c97f196da883-24" edge="1">
          <mxGeometry relative="1" as="geometry" />
        </mxCell>
        <mxCell id="107ba76e4e335f99-1" style="edgeStyle=orthogonalEdgeStyle;rounded=1;html=1;labelBackgroundColor=none;startArrow=none;startFill=0;startSize=5;endArrow=classicThin;endFill=1;endSize=5;jettySize=auto;orthogonalLoop=1;strokeWidth=1;fontFamily=Verdana;fontSize=8" parent="77e6c97f196da883-1" source="77e6c97f196da883-17" target="77e6c97f196da883-18" edge="1">
          <mxGeometry relative="1" as="geometry" />
        </mxCell>
        <mxCell id="107ba76e4e335f99-2" style="edgeStyle=orthogonalEdgeStyle;rounded=1;html=1;labelBackgroundColor=none;startArrow=none;startFill=0;startSize=5;endArrow=classicThin;endFill=1;endSize=5;jettySize=auto;orthogonalLoop=1;strokeWidth=1;fontFamily=Verdana;fontSize=8" parent="77e6c97f196da883-1" source="77e6c97f196da883-22" target="77e6c97f196da883-14" edge="1">
          <mxGeometry relative="1" as="geometry">
            <Array as="points">
              <mxPoint x="660" y="610" />
              <mxPoint x="660" y="550" />
              <mxPoint x="400" y="550" />
            </Array>
          </mxGeometry>
        </mxCell>
        <mxCell id="107ba76e4e335f99-3" style="edgeStyle=orthogonalEdgeStyle;rounded=1;html=1;labelBackgroundColor=none;startArrow=none;startFill=0;startSize=5;endArrow=classicThin;endFill=1;endSize=5;jettySize=auto;orthogonalLoop=1;strokeColor=#000000;strokeWidth=1;fontFamily=Verdana;fontSize=8;fontColor=#000000;" parent="77e6c97f196da883-1" source="77e6c97f196da883-22" target="77e6c97f196da883-19" edge="1">
          <mxGeometry relative="1" as="geometry" />
        </mxCell>
        <mxCell id="107ba76e4e335f99-4" style="edgeStyle=orthogonalEdgeStyle;rounded=1;html=1;labelBackgroundColor=none;startArrow=none;startFill=0;startSize=5;endArrow=classicThin;endFill=1;endSize=5;jettySize=auto;orthogonalLoop=1;strokeWidth=1;fontFamily=Verdana;fontSize=8" parent="77e6c97f196da883-1" source="77e6c97f196da883-22" target="77e6c97f196da883-10" edge="1">
          <mxGeometry relative="1" as="geometry">
            <Array as="points">
              <mxPoint x="660" y="610" />
              <mxPoint x="660" y="550" />
              <mxPoint x="80" y="550" />
            </Array>
          </mxGeometry>
        </mxCell>
        <mxCell id="107ba76e4e335f99-5" style="edgeStyle=orthogonalEdgeStyle;rounded=1;html=1;labelBackgroundColor=none;startArrow=none;startFill=0;startSize=5;endArrow=classicThin;endFill=1;endSize=5;jettySize=auto;orthogonalLoop=1;strokeWidth=1;fontFamily=Verdana;fontSize=8" parent="77e6c97f196da883-1" source="77e6c97f196da883-10" target="77e6c97f196da883-19" edge="1">
          <mxGeometry relative="1" as="geometry">
            <Array as="points">
              <mxPoint x="80" y="650" />
              <mxPoint x="490" y="650" />
              <mxPoint x="490" y="610" />
            </Array>
          </mxGeometry>
        </mxCell>
        <mxCell id="107ba76e4e335f99-6" style="edgeStyle=orthogonalEdgeStyle;rounded=1;html=1;labelBackgroundColor=none;startArrow=none;startFill=0;startSize=5;endArrow=classicThin;endFill=1;endSize=5;jettySize=auto;orthogonalLoop=1;strokeWidth=1;fontFamily=Verdana;fontSize=8" parent="77e6c97f196da883-1" source="77e6c97f196da883-14" target="77e6c97f196da883-19" edge="1">
          <mxGeometry relative="1" as="geometry" />
        </mxCell>
        <mxCell id="77e6c97f196da883-3" value="Lane 2" style="swimlane;html=1;startSize=20;" parent="77e6c97f196da883-1" vertex="1">
          <mxGeometry x="160" y="20" width="160" height="730" as="geometry" />
        </mxCell>
        <mxCell id="77e6c97f196da883-11" value="" style="rounded=1;whiteSpace=wrap;html=1;shadow=0;labelBackgroundColor=none;strokeWidth=1;fontFamily=Verdana;fontSize=8;align=center;" parent="77e6c97f196da883-3" vertex="1">
          <mxGeometry x="30" y="65" width="100" height="60" as="geometry" />
        </mxCell>
        <mxCell id="77e6c97f196da883-4" value="Lane 3" style="swimlane;html=1;startSize=20;" parent="77e6c97f196da883-1" vertex="1">
          <mxGeometry x="320" y="20" width="160" height="730" as="geometry" />
        </mxCell>
        <mxCell id="77e6c97f196da883-12" value="" style="rounded=1;whiteSpace=wrap;html=1;shadow=0;labelBackgroundColor=none;strokeWidth=1;fontFamily=Verdana;fontSize=8;align=center;" parent="77e6c97f196da883-4" vertex="1">
          <mxGeometry x="30" y="155" width="100" height="60" as="geometry" />
        </mxCell>
        <mxCell id="77e6c97f196da883-13" value="" style="rhombus;whiteSpace=wrap;html=1;rounded=0;shadow=0;labelBackgroundColor=none;strokeWidth=1;fontFamily=Verdana;fontSize=8;align=center;" parent="77e6c97f196da883-4" vertex="1">
          <mxGeometry x="40" y="240" width="80" height="60" as="geometry" />
        </mxCell>
        <mxCell id="77e6c97f196da883-14" value="" style="rounded=1;whiteSpace=wrap;html=1;shadow=0;labelBackgroundColor=none;strokeWidth=1;fontFamily=Verdana;fontSize=8;align=center;" parent="77e6c97f196da883-4" vertex="1">
          <mxGeometry x="30" y="560" width="100" height="60" as="geometry" />
        </mxCell>
        <mxCell id="77e6c97f196da883-29" style="edgeStyle=orthogonalEdgeStyle;rounded=1;html=1;labelBackgroundColor=none;startArrow=none;startFill=0;startSize=5;endArrow=classicThin;endFill=1;endSize=5;jettySize=auto;orthogonalLoop=1;strokeWidth=1;fontFamily=Verdana;fontSize=8" parent="77e6c97f196da883-4" source="77e6c97f196da883-12" target="77e6c97f196da883-13" edge="1">
          <mxGeometry relative="1" as="geometry" />
        </mxCell>
        <mxCell id="77e6c97f196da883-5" value="Lane 4" style="swimlane;html=1;startSize=20;" parent="77e6c97f196da883-1" vertex="1">
          <mxGeometry x="480" y="20" width="160" height="730" as="geometry" />
        </mxCell>
        <mxCell id="77e6c97f196da883-15" value="" style="rounded=1;whiteSpace=wrap;html=1;shadow=0;labelBackgroundColor=none;strokeWidth=1;fontFamily=Verdana;fontSize=8;align=center;" parent="77e6c97f196da883-5" vertex="1">
          <mxGeometry x="30" y="240" width="100" height="60" as="geometry" />
        </mxCell>
        <mxCell id="77e6c97f196da883-16" value="" style="rhombus;whiteSpace=wrap;html=1;rounded=0;shadow=0;labelBackgroundColor=none;strokeWidth=1;fontFamily=Verdana;fontSize=8;align=center;" parent="77e6c97f196da883-5" vertex="1">
          <mxGeometry x="40" y="320" width="80" height="60" as="geometry" />
        </mxCell>
        <mxCell id="77e6c97f196da883-17" value="" style="rounded=1;whiteSpace=wrap;html=1;shadow=0;labelBackgroundColor=none;strokeWidth=1;fontFamily=Verdana;fontSize=8;align=center;" parent="77e6c97f196da883-5" vertex="1">
          <mxGeometry x="30" y="400" width="100" height="60" as="geometry" />
        </mxCell>
        <mxCell id="77e6c97f196da883-19" value="" style="rounded=1;whiteSpace=wrap;html=1;shadow=0;labelBackgroundColor=none;strokeWidth=1;fontFamily=Verdana;fontSize=8;align=center;" parent="77e6c97f196da883-5" vertex="1">
          <mxGeometry x="30" y="560" width="100" height="60" as="geometry" />
        </mxCell>
        <mxCell id="77e6c97f196da883-20" value="" style="rhombus;whiteSpace=wrap;html=1;rounded=0;shadow=0;labelBackgroundColor=none;strokeWidth=1;fontFamily=Verdana;fontSize=8;align=center;" parent="77e6c97f196da883-5" vertex="1">
          <mxGeometry x="40" y="640" width="80" height="60" as="geometry" />
        </mxCell>
        <mxCell id="77e6c97f196da883-34" style="edgeStyle=orthogonalEdgeStyle;rounded=1;html=1;labelBackgroundColor=none;startArrow=none;startFill=0;startSize=5;endArrow=classicThin;endFill=1;endSize=5;jettySize=auto;orthogonalLoop=1;strokeColor=#000000;strokeWidth=1;fontFamily=Verdana;fontSize=8;fontColor=#000000;" parent="77e6c97f196da883-5" source="77e6c97f196da883-15" target="77e6c97f196da883-16" edge="1">
          <mxGeometry relative="1" as="geometry" />
        </mxCell>
        <mxCell id="77e6c97f196da883-35" style="edgeStyle=orthogonalEdgeStyle;rounded=1;html=1;labelBackgroundColor=none;startArrow=none;startFill=0;startSize=5;endArrow=classicThin;endFill=1;endSize=5;jettySize=auto;orthogonalLoop=1;strokeWidth=1;fontFamily=Verdana;fontSize=8" parent="77e6c97f196da883-5" source="77e6c97f196da883-16" target="77e6c97f196da883-17" edge="1">
          <mxGeometry relative="1" as="geometry" />
        </mxCell>
        <mxCell id="77e6c97f196da883-36" style="edgeStyle=orthogonalEdgeStyle;rounded=1;html=1;labelBackgroundColor=none;startArrow=none;startFill=0;startSize=5;endArrow=classicThin;endFill=1;endSize=5;jettySize=auto;orthogonalLoop=1;strokeWidth=1;fontFamily=Verdana;fontSize=8" parent="77e6c97f196da883-5" source="77e6c97f196da883-19" target="77e6c97f196da883-20" edge="1">
          <mxGeometry relative="1" as="geometry" />
        </mxCell>
        <mxCell id="77e6c97f196da883-6" value="Lane 5" style="swimlane;html=1;startSize=20;" parent="77e6c97f196da883-1" vertex="1">
          <mxGeometry x="640" y="20" width="160" height="730" as="geometry" />
        </mxCell>
        <mxCell id="77e6c97f196da883-18" value="" style="rounded=1;whiteSpace=wrap;html=1;shadow=0;labelBackgroundColor=none;strokeWidth=1;fontFamily=Verdana;fontSize=8;align=center;" parent="77e6c97f196da883-6" vertex="1">
          <mxGeometry x="30" y="400" width="100" height="60" as="geometry" />
        </mxCell>
        <mxCell id="77e6c97f196da883-21" value="" style="rounded=1;whiteSpace=wrap;html=1;shadow=0;labelBackgroundColor=none;strokeWidth=1;fontFamily=Verdana;fontSize=8;align=center;" parent="77e6c97f196da883-6" vertex="1">
          <mxGeometry x="30" y="480" width="100" height="60" as="geometry" />
        </mxCell>
        <mxCell id="77e6c97f196da883-22" value="" style="rounded=1;whiteSpace=wrap;html=1;shadow=0;labelBackgroundColor=none;strokeWidth=1;fontFamily=Verdana;fontSize=8;align=center;" parent="77e6c97f196da883-6" vertex="1">
          <mxGeometry x="30" y="560" width="100" height="60" as="geometry" />
        </mxCell>
        <mxCell id="77e6c97f196da883-23" value="" style="rounded=1;whiteSpace=wrap;html=1;shadow=0;labelBackgroundColor=none;strokeWidth=1;fontFamily=Verdana;fontSize=8;align=center;" parent="77e6c97f196da883-6" vertex="1">
          <mxGeometry x="30" y="640" width="100" height="60" as="geometry" />
        </mxCell>
        <mxCell id="77e6c97f196da883-37" style="edgeStyle=orthogonalEdgeStyle;rounded=1;html=1;labelBackgroundColor=none;startArrow=none;startFill=0;startSize=5;endArrow=classicThin;endFill=1;endSize=5;jettySize=auto;orthogonalLoop=1;strokeWidth=1;fontFamily=Verdana;fontSize=8" parent="77e6c97f196da883-6" source="77e6c97f196da883-18" target="77e6c97f196da883-21" edge="1">
          <mxGeometry relative="1" as="geometry" />
        </mxCell>
        <mxCell id="77e6c97f196da883-38" style="edgeStyle=orthogonalEdgeStyle;rounded=1;html=1;labelBackgroundColor=none;startArrow=none;startFill=0;startSize=5;endArrow=classicThin;endFill=1;endSize=5;jettySize=auto;orthogonalLoop=1;strokeWidth=1;fontFamily=Verdana;fontSize=8" parent="77e6c97f196da883-6" source="77e6c97f196da883-21" target="77e6c97f196da883-22" edge="1">
          <mxGeometry relative="1" as="geometry" />
        </mxCell>
        <mxCell id="77e6c97f196da883-7" value="Lane 6" style="swimlane;html=1;startSize=20;" parent="77e6c97f196da883-1" vertex="1">
          <mxGeometry x="800" y="20" width="160" height="730" as="geometry" />
        </mxCell>
        <mxCell id="77e6c97f196da883-24" value="" style="rounded=1;whiteSpace=wrap;html=1;shadow=0;labelBackgroundColor=none;strokeWidth=1;fontFamily=Verdana;fontSize=8;align=center;" parent="77e6c97f196da883-7" vertex="1">
          <mxGeometry x="30" y="640" width="100" height="60" as="geometry" />
        </mxCell>
      </root>
    </mxGraphModel>
  </diagram>
  <diagram id="R-BFAURhvYw_AjCkQOjQ" name="Page-2">
    <mxGraphModel dx="1426" dy="826" grid="0" gridSize="10" guides="1" tooltips="1" connect="1" arrows="1" fold="1" page="1" pageScale="1" pageWidth="827" pageHeight="1169" math="0" shadow="0">
      <root>
        <mxCell id="ekmIZR2HNfIdnJ5pG9s8-0" />
        <mxCell id="ekmIZR2HNfIdnJ5pG9s8-1" parent="ekmIZR2HNfIdnJ5pG9s8-0" />
        <mxCell id="ehJKbEj-RfJ_FMlYvg_V-10" style="edgeStyle=orthogonalEdgeStyle;rounded=0;orthogonalLoop=1;jettySize=auto;html=1;exitX=0.5;exitY=0;exitDx=0;exitDy=0;entryX=0.5;entryY=1;entryDx=0;entryDy=0;" edge="1" parent="ekmIZR2HNfIdnJ5pG9s8-1" source="e9_uEZlfZBH_pGJ51SAt-0" target="ehJKbEj-RfJ_FMlYvg_V-0">
          <mxGeometry relative="1" as="geometry" />
        </mxCell>
        <mxCell id="e9_uEZlfZBH_pGJ51SAt-0" value="op1" style="rounded=1;whiteSpace=wrap;html=1;shadow=0;labelBackgroundColor=none;strokeWidth=1;fontFamily=Verdana;fontSize=8;align=center;" vertex="1" parent="ekmIZR2HNfIdnJ5pG9s8-1">
          <mxGeometry x="233" y="460.5" width="60" height="25" as="geometry" />
        </mxCell>
        <mxCell id="ehJKbEj-RfJ_FMlYvg_V-0" value="op2" style="rounded=1;whiteSpace=wrap;html=1;shadow=0;labelBackgroundColor=none;strokeWidth=1;fontFamily=Verdana;fontSize=8;align=center;" vertex="1" parent="ekmIZR2HNfIdnJ5pG9s8-1">
          <mxGeometry x="233" y="415.5" width="60" height="25" as="geometry" />
        </mxCell>
        <mxCell id="ehJKbEj-RfJ_FMlYvg_V-1" value="op4" style="rounded=1;whiteSpace=wrap;html=1;shadow=0;labelBackgroundColor=none;strokeWidth=1;fontFamily=Verdana;fontSize=8;align=center;" vertex="1" parent="ekmIZR2HNfIdnJ5pG9s8-1">
          <mxGeometry x="183" y="285.5" width="60" height="25" as="geometry" />
        </mxCell>
        <mxCell id="ehJKbEj-RfJ_FMlYvg_V-2" value="op3" style="rounded=1;whiteSpace=wrap;html=1;shadow=0;labelBackgroundColor=none;strokeWidth=1;fontFamily=Verdana;fontSize=8;align=center;" vertex="1" parent="ekmIZR2HNfIdnJ5pG9s8-1">
          <mxGeometry x="183" y="345.5" width="60" height="25" as="geometry" />
        </mxCell>
        <mxCell id="ehJKbEj-RfJ_FMlYvg_V-3" value="op7" style="rounded=1;whiteSpace=wrap;html=1;shadow=0;labelBackgroundColor=none;strokeWidth=1;fontFamily=Verdana;fontSize=8;align=center;" vertex="1" parent="ekmIZR2HNfIdnJ5pG9s8-1">
          <mxGeometry x="283" y="260.5" width="60" height="25" as="geometry" />
        </mxCell>
        <mxCell id="ehJKbEj-RfJ_FMlYvg_V-4" value="op5" style="rounded=1;whiteSpace=wrap;html=1;shadow=0;labelBackgroundColor=none;strokeWidth=1;fontFamily=Verdana;fontSize=8;align=center;" vertex="1" parent="ekmIZR2HNfIdnJ5pG9s8-1">
          <mxGeometry x="283" y="355.5" width="60" height="25" as="geometry" />
        </mxCell>
        <mxCell id="ehJKbEj-RfJ_FMlYvg_V-5" value="op6" style="rounded=1;whiteSpace=wrap;html=1;shadow=0;labelBackgroundColor=none;strokeWidth=1;fontFamily=Verdana;fontSize=8;align=center;" vertex="1" parent="ekmIZR2HNfIdnJ5pG9s8-1">
          <mxGeometry x="283" y="310.5" width="60" height="25" as="geometry" />
        </mxCell>
        <mxCell id="ehJKbEj-RfJ_FMlYvg_V-7" value="op9" style="rounded=1;whiteSpace=wrap;html=1;shadow=0;labelBackgroundColor=none;strokeWidth=1;fontFamily=Verdana;fontSize=8;align=center;" vertex="1" parent="ekmIZR2HNfIdnJ5pG9s8-1">
          <mxGeometry x="233" y="155.5" width="60" height="25" as="geometry" />
        </mxCell>
        <mxCell id="ehJKbEj-RfJ_FMlYvg_V-8" value="op8" style="rounded=1;whiteSpace=wrap;html=1;shadow=0;labelBackgroundColor=none;strokeWidth=1;fontFamily=Verdana;fontSize=8;align=center;" vertex="1" parent="ekmIZR2HNfIdnJ5pG9s8-1">
          <mxGeometry x="233" y="205.5" width="60" height="25" as="geometry" />
        </mxCell>
        <mxCell id="ehJKbEj-RfJ_FMlYvg_V-9" value="" style="endArrow=classic;html=1;entryX=0.5;entryY=1;entryDx=0;entryDy=0;" edge="1" parent="ekmIZR2HNfIdnJ5pG9s8-1" target="e9_uEZlfZBH_pGJ51SAt-0">
          <mxGeometry width="50" height="50" relative="1" as="geometry">
            <mxPoint x="263" y="505.5" as="sourcePoint" />
            <mxPoint x="503" y="465.5" as="targetPoint" />
          </mxGeometry>
        </mxCell>
        <mxCell id="ehJKbEj-RfJ_FMlYvg_V-12" value="" style="endArrow=classic;html=1;entryX=0.5;entryY=1;entryDx=0;entryDy=0;exitX=0.75;exitY=0;exitDx=0;exitDy=0;" edge="1" parent="ekmIZR2HNfIdnJ5pG9s8-1" source="ehJKbEj-RfJ_FMlYvg_V-0" target="ehJKbEj-RfJ_FMlYvg_V-4">
          <mxGeometry width="50" height="50" relative="1" as="geometry">
            <mxPoint x="263" y="405.5" as="sourcePoint" />
            <mxPoint x="313" y="355.5" as="targetPoint" />
          </mxGeometry>
        </mxCell>
        <mxCell id="ehJKbEj-RfJ_FMlYvg_V-13" value="" style="endArrow=classic;html=1;exitX=0.25;exitY=0;exitDx=0;exitDy=0;entryX=0.5;entryY=1;entryDx=0;entryDy=0;" edge="1" parent="ekmIZR2HNfIdnJ5pG9s8-1" source="ehJKbEj-RfJ_FMlYvg_V-0" target="ehJKbEj-RfJ_FMlYvg_V-2">
          <mxGeometry width="50" height="50" relative="1" as="geometry">
            <mxPoint x="143" y="420.5" as="sourcePoint" />
            <mxPoint x="193" y="370.5" as="targetPoint" />
          </mxGeometry>
        </mxCell>
        <mxCell id="ehJKbEj-RfJ_FMlYvg_V-14" value="" style="endArrow=classic;html=1;exitX=0.5;exitY=0;exitDx=0;exitDy=0;" edge="1" parent="ekmIZR2HNfIdnJ5pG9s8-1" source="ehJKbEj-RfJ_FMlYvg_V-2">
          <mxGeometry width="50" height="50" relative="1" as="geometry">
            <mxPoint x="163" y="360.5" as="sourcePoint" />
            <mxPoint x="213" y="310.5" as="targetPoint" />
          </mxGeometry>
        </mxCell>
        <mxCell id="ehJKbEj-RfJ_FMlYvg_V-15" value="" style="endArrow=classic;html=1;exitX=0.5;exitY=0;exitDx=0;exitDy=0;" edge="1" parent="ekmIZR2HNfIdnJ5pG9s8-1" source="ehJKbEj-RfJ_FMlYvg_V-4">
          <mxGeometry width="50" height="50" relative="1" as="geometry">
            <mxPoint x="263" y="385.5" as="sourcePoint" />
            <mxPoint x="313" y="335.5" as="targetPoint" />
          </mxGeometry>
        </mxCell>
        <mxCell id="ehJKbEj-RfJ_FMlYvg_V-16" value="" style="endArrow=classic;html=1;exitX=0.5;exitY=0;exitDx=0;exitDy=0;" edge="1" parent="ekmIZR2HNfIdnJ5pG9s8-1" source="ehJKbEj-RfJ_FMlYvg_V-5">
          <mxGeometry width="50" height="50" relative="1" as="geometry">
            <mxPoint x="263" y="335.5" as="sourcePoint" />
            <mxPoint x="313" y="285.5" as="targetPoint" />
          </mxGeometry>
        </mxCell>
        <mxCell id="ehJKbEj-RfJ_FMlYvg_V-17" value="" style="endArrow=classic;html=1;exitX=0.5;exitY=0;exitDx=0;exitDy=0;entryX=0.25;entryY=1;entryDx=0;entryDy=0;" edge="1" parent="ekmIZR2HNfIdnJ5pG9s8-1" source="ehJKbEj-RfJ_FMlYvg_V-1" target="ehJKbEj-RfJ_FMlYvg_V-8">
          <mxGeometry width="50" height="50" relative="1" as="geometry">
            <mxPoint x="213" y="280.5" as="sourcePoint" />
            <mxPoint x="263" y="230.5" as="targetPoint" />
          </mxGeometry>
        </mxCell>
        <mxCell id="ehJKbEj-RfJ_FMlYvg_V-18" value="" style="endArrow=classic;html=1;exitX=0.5;exitY=0;exitDx=0;exitDy=0;entryX=0.883;entryY=1.08;entryDx=0;entryDy=0;entryPerimeter=0;" edge="1" parent="ekmIZR2HNfIdnJ5pG9s8-1" source="ehJKbEj-RfJ_FMlYvg_V-3" target="ehJKbEj-RfJ_FMlYvg_V-8">
          <mxGeometry width="50" height="50" relative="1" as="geometry">
            <mxPoint x="223" y="280.5" as="sourcePoint" />
            <mxPoint x="273" y="230.5" as="targetPoint" />
          </mxGeometry>
        </mxCell>
        <mxCell id="ehJKbEj-RfJ_FMlYvg_V-19" value="" style="endArrow=classic;html=1;exitX=0.5;exitY=0;exitDx=0;exitDy=0;" edge="1" parent="ekmIZR2HNfIdnJ5pG9s8-1" source="ehJKbEj-RfJ_FMlYvg_V-8">
          <mxGeometry width="50" height="50" relative="1" as="geometry">
            <mxPoint x="213" y="230.5" as="sourcePoint" />
            <mxPoint x="263" y="180.5" as="targetPoint" />
          </mxGeometry>
        </mxCell>
        <mxCell id="ehJKbEj-RfJ_FMlYvg_V-42" style="edgeStyle=orthogonalEdgeStyle;rounded=0;orthogonalLoop=1;jettySize=auto;html=1;exitX=0.5;exitY=0;exitDx=0;exitDy=0;entryX=0.5;entryY=1;entryDx=0;entryDy=0;fillColor=#f5f5f5;strokeColor=#666666;" edge="1" parent="ekmIZR2HNfIdnJ5pG9s8-1" source="ehJKbEj-RfJ_FMlYvg_V-43" target="ehJKbEj-RfJ_FMlYvg_V-44">
          <mxGeometry relative="1" as="geometry" />
        </mxCell>
        <mxCell id="ehJKbEj-RfJ_FMlYvg_V-43" value="op1" style="rounded=1;whiteSpace=wrap;html=1;shadow=0;labelBackgroundColor=none;strokeWidth=1;fontFamily=Verdana;fontSize=8;align=center;fillColor=#f5f5f5;strokeColor=#666666;fontColor=#333333;" vertex="1" parent="ekmIZR2HNfIdnJ5pG9s8-1">
          <mxGeometry x="463" y="458" width="60" height="25" as="geometry" />
        </mxCell>
        <mxCell id="ehJKbEj-RfJ_FMlYvg_V-44" value="op2" style="rounded=1;whiteSpace=wrap;html=1;shadow=0;labelBackgroundColor=none;strokeWidth=1;fontFamily=Verdana;fontSize=8;align=center;fillColor=#f5f5f5;strokeColor=#666666;fontColor=#333333;" vertex="1" parent="ekmIZR2HNfIdnJ5pG9s8-1">
          <mxGeometry x="463" y="413" width="60" height="25" as="geometry" />
        </mxCell>
        <mxCell id="ehJKbEj-RfJ_FMlYvg_V-45" value="op4" style="rounded=1;whiteSpace=wrap;html=1;shadow=0;labelBackgroundColor=none;strokeWidth=1;fontFamily=Verdana;fontSize=8;align=center;fillColor=#dae8fc;strokeColor=#6c8ebf;" vertex="1" parent="ekmIZR2HNfIdnJ5pG9s8-1">
          <mxGeometry x="413" y="283" width="60" height="25" as="geometry" />
        </mxCell>
        <mxCell id="ehJKbEj-RfJ_FMlYvg_V-46" value="op3" style="rounded=1;whiteSpace=wrap;html=1;shadow=0;labelBackgroundColor=none;strokeWidth=1;fontFamily=Verdana;fontSize=8;align=center;fillColor=#dae8fc;strokeColor=#6c8ebf;" vertex="1" parent="ekmIZR2HNfIdnJ5pG9s8-1">
          <mxGeometry x="413" y="343" width="60" height="25" as="geometry" />
        </mxCell>
        <mxCell id="ehJKbEj-RfJ_FMlYvg_V-47" value="op7" style="rounded=1;whiteSpace=wrap;html=1;shadow=0;labelBackgroundColor=none;strokeWidth=1;fontFamily=Verdana;fontSize=8;align=center;fillColor=#d5e8d4;strokeColor=#82b366;" vertex="1" parent="ekmIZR2HNfIdnJ5pG9s8-1">
          <mxGeometry x="513" y="258" width="60" height="25" as="geometry" />
        </mxCell>
        <mxCell id="ehJKbEj-RfJ_FMlYvg_V-48" value="op5" style="rounded=1;whiteSpace=wrap;html=1;shadow=0;labelBackgroundColor=none;strokeWidth=1;fontFamily=Verdana;fontSize=8;align=center;fillColor=#d5e8d4;strokeColor=#82b366;" vertex="1" parent="ekmIZR2HNfIdnJ5pG9s8-1">
          <mxGeometry x="513" y="353" width="60" height="25" as="geometry" />
        </mxCell>
        <mxCell id="ehJKbEj-RfJ_FMlYvg_V-49" value="op6" style="rounded=1;whiteSpace=wrap;html=1;shadow=0;labelBackgroundColor=none;strokeWidth=1;fontFamily=Verdana;fontSize=8;align=center;fillColor=#d5e8d4;strokeColor=#82b366;" vertex="1" parent="ekmIZR2HNfIdnJ5pG9s8-1">
          <mxGeometry x="513" y="308" width="60" height="25" as="geometry" />
        </mxCell>
        <mxCell id="ehJKbEj-RfJ_FMlYvg_V-50" value="op9" style="rounded=1;whiteSpace=wrap;html=1;shadow=0;labelBackgroundColor=none;strokeWidth=1;fontFamily=Verdana;fontSize=8;align=center;fillColor=#ffe6cc;strokeColor=#d79b00;" vertex="1" parent="ekmIZR2HNfIdnJ5pG9s8-1">
          <mxGeometry x="463" y="153" width="60" height="25" as="geometry" />
        </mxCell>
        <mxCell id="ehJKbEj-RfJ_FMlYvg_V-51" value="op8" style="rounded=1;whiteSpace=wrap;html=1;shadow=0;labelBackgroundColor=none;strokeWidth=1;fontFamily=Verdana;fontSize=8;align=center;fillColor=#ffe6cc;strokeColor=#d79b00;" vertex="1" parent="ekmIZR2HNfIdnJ5pG9s8-1">
          <mxGeometry x="463" y="203" width="60" height="25" as="geometry" />
        </mxCell>
        <mxCell id="ehJKbEj-RfJ_FMlYvg_V-52" value="" style="endArrow=classic;html=1;entryX=0.5;entryY=1;entryDx=0;entryDy=0;" edge="1" parent="ekmIZR2HNfIdnJ5pG9s8-1" target="ehJKbEj-RfJ_FMlYvg_V-43">
          <mxGeometry width="50" height="50" relative="1" as="geometry">
            <mxPoint x="493" y="503" as="sourcePoint" />
            <mxPoint x="733" y="463" as="targetPoint" />
          </mxGeometry>
        </mxCell>
        <mxCell id="ehJKbEj-RfJ_FMlYvg_V-53" value="" style="endArrow=classic;html=1;entryX=0.5;entryY=1;entryDx=0;entryDy=0;exitX=0.75;exitY=0;exitDx=0;exitDy=0;" edge="1" parent="ekmIZR2HNfIdnJ5pG9s8-1" source="ehJKbEj-RfJ_FMlYvg_V-44" target="ehJKbEj-RfJ_FMlYvg_V-48">
          <mxGeometry width="50" height="50" relative="1" as="geometry">
            <mxPoint x="493" y="403" as="sourcePoint" />
            <mxPoint x="543" y="353" as="targetPoint" />
          </mxGeometry>
        </mxCell>
        <mxCell id="ehJKbEj-RfJ_FMlYvg_V-54" value="" style="endArrow=classic;html=1;exitX=0.25;exitY=0;exitDx=0;exitDy=0;entryX=0.5;entryY=1;entryDx=0;entryDy=0;" edge="1" parent="ekmIZR2HNfIdnJ5pG9s8-1" source="ehJKbEj-RfJ_FMlYvg_V-44" target="ehJKbEj-RfJ_FMlYvg_V-46">
          <mxGeometry width="50" height="50" relative="1" as="geometry">
            <mxPoint x="373" y="418" as="sourcePoint" />
            <mxPoint x="423" y="368" as="targetPoint" />
          </mxGeometry>
        </mxCell>
        <mxCell id="ehJKbEj-RfJ_FMlYvg_V-55" value="" style="endArrow=classic;html=1;exitX=0.5;exitY=0;exitDx=0;exitDy=0;" edge="1" parent="ekmIZR2HNfIdnJ5pG9s8-1" source="ehJKbEj-RfJ_FMlYvg_V-46">
          <mxGeometry width="50" height="50" relative="1" as="geometry">
            <mxPoint x="393" y="358" as="sourcePoint" />
            <mxPoint x="443" y="308" as="targetPoint" />
          </mxGeometry>
        </mxCell>
        <mxCell id="ehJKbEj-RfJ_FMlYvg_V-56" value="" style="endArrow=classic;html=1;exitX=0.5;exitY=0;exitDx=0;exitDy=0;" edge="1" parent="ekmIZR2HNfIdnJ5pG9s8-1" source="ehJKbEj-RfJ_FMlYvg_V-48">
          <mxGeometry width="50" height="50" relative="1" as="geometry">
            <mxPoint x="493" y="383" as="sourcePoint" />
            <mxPoint x="543" y="333" as="targetPoint" />
          </mxGeometry>
        </mxCell>
        <mxCell id="ehJKbEj-RfJ_FMlYvg_V-57" value="" style="endArrow=classic;html=1;exitX=0.5;exitY=0;exitDx=0;exitDy=0;" edge="1" parent="ekmIZR2HNfIdnJ5pG9s8-1" source="ehJKbEj-RfJ_FMlYvg_V-49">
          <mxGeometry width="50" height="50" relative="1" as="geometry">
            <mxPoint x="493" y="333" as="sourcePoint" />
            <mxPoint x="543" y="283" as="targetPoint" />
          </mxGeometry>
        </mxCell>
        <mxCell id="ehJKbEj-RfJ_FMlYvg_V-58" value="" style="endArrow=classic;html=1;exitX=0.5;exitY=0;exitDx=0;exitDy=0;entryX=0.25;entryY=1;entryDx=0;entryDy=0;" edge="1" parent="ekmIZR2HNfIdnJ5pG9s8-1" source="ehJKbEj-RfJ_FMlYvg_V-45" target="ehJKbEj-RfJ_FMlYvg_V-51">
          <mxGeometry width="50" height="50" relative="1" as="geometry">
            <mxPoint x="443" y="278" as="sourcePoint" />
            <mxPoint x="493" y="228" as="targetPoint" />
          </mxGeometry>
        </mxCell>
        <mxCell id="ehJKbEj-RfJ_FMlYvg_V-59" value="" style="endArrow=classic;html=1;exitX=0.5;exitY=0;exitDx=0;exitDy=0;entryX=0.883;entryY=1.08;entryDx=0;entryDy=0;entryPerimeter=0;" edge="1" parent="ekmIZR2HNfIdnJ5pG9s8-1" source="ehJKbEj-RfJ_FMlYvg_V-47" target="ehJKbEj-RfJ_FMlYvg_V-51">
          <mxGeometry width="50" height="50" relative="1" as="geometry">
            <mxPoint x="453" y="278" as="sourcePoint" />
            <mxPoint x="503" y="228" as="targetPoint" />
          </mxGeometry>
        </mxCell>
        <mxCell id="ehJKbEj-RfJ_FMlYvg_V-60" value="" style="endArrow=classic;html=1;exitX=0.5;exitY=0;exitDx=0;exitDy=0;" edge="1" parent="ekmIZR2HNfIdnJ5pG9s8-1" source="ehJKbEj-RfJ_FMlYvg_V-51">
          <mxGeometry width="50" height="50" relative="1" as="geometry">
            <mxPoint x="443" y="228" as="sourcePoint" />
            <mxPoint x="493" y="178" as="targetPoint" />
          </mxGeometry>
        </mxCell>
        <mxCell id="ehJKbEj-RfJ_FMlYvg_V-61" value="" style="shape=flexArrow;endArrow=classic;html=1;" edge="1" parent="ekmIZR2HNfIdnJ5pG9s8-1">
          <mxGeometry width="50" height="50" relative="1" as="geometry">
            <mxPoint x="353" y="322.5" as="sourcePoint" />
            <mxPoint x="393" y="322.5" as="targetPoint" />
          </mxGeometry>
        </mxCell>
        <mxCell id="ehJKbEj-RfJ_FMlYvg_V-64" value="" style="rounded=0;whiteSpace=wrap;html=1;dashed=1;opacity=50;shadow=0;glass=0;fillOpacity=0;backgroundOutline=0;arcSize=12;" vertex="1" parent="ekmIZR2HNfIdnJ5pG9s8-1">
          <mxGeometry x="453" y="403" width="80" height="90" as="geometry" />
        </mxCell>
        <mxCell id="ehJKbEj-RfJ_FMlYvg_V-65" value="" style="rounded=0;whiteSpace=wrap;html=1;dashed=1;opacity=50;shadow=0;glass=0;fillOpacity=0;backgroundOutline=0;arcSize=12;" vertex="1" parent="ekmIZR2HNfIdnJ5pG9s8-1">
          <mxGeometry x="403" y="273" width="82" height="110" as="geometry" />
        </mxCell>
        <mxCell id="ehJKbEj-RfJ_FMlYvg_V-66" value="" style="rounded=0;whiteSpace=wrap;html=1;dashed=1;opacity=50;shadow=0;glass=0;fillOpacity=0;backgroundOutline=0;arcSize=12;" vertex="1" parent="ekmIZR2HNfIdnJ5pG9s8-1">
          <mxGeometry x="505" y="253" width="80" height="130" as="geometry" />
        </mxCell>
        <mxCell id="ehJKbEj-RfJ_FMlYvg_V-67" value="" style="rounded=0;whiteSpace=wrap;html=1;dashed=1;opacity=50;shadow=0;glass=0;fillOpacity=0;backgroundOutline=0;arcSize=12;" vertex="1" parent="ekmIZR2HNfIdnJ5pG9s8-1">
          <mxGeometry x="455" y="143" width="80" height="90" as="geometry" />
        </mxCell>
        <mxCell id="ehJKbEj-RfJ_FMlYvg_V-68" value="" style="endArrow=none;html=1;" edge="1" parent="ekmIZR2HNfIdnJ5pG9s8-1">
          <mxGeometry width="50" height="50" relative="1" as="geometry">
            <mxPoint x="393" y="245.5" as="sourcePoint" />
            <mxPoint x="593" y="245.5" as="targetPoint" />
          </mxGeometry>
        </mxCell>
        <mxCell id="ehJKbEj-RfJ_FMlYvg_V-72" value="" style="endArrow=none;html=1;" edge="1" parent="ekmIZR2HNfIdnJ5pG9s8-1">
          <mxGeometry width="50" height="50" relative="1" as="geometry">
            <mxPoint x="393" y="393.5" as="sourcePoint" />
            <mxPoint x="593" y="393.5" as="targetPoint" />
          </mxGeometry>
        </mxCell>
        <mxCell id="ehJKbEj-RfJ_FMlYvg_V-117" style="edgeStyle=orthogonalEdgeStyle;rounded=0;orthogonalLoop=1;jettySize=auto;html=1;exitX=0.5;exitY=0;exitDx=0;exitDy=0;entryX=0.5;entryY=1;entryDx=0;entryDy=0;" edge="1" parent="ekmIZR2HNfIdnJ5pG9s8-1" source="ehJKbEj-RfJ_FMlYvg_V-118" target="ehJKbEj-RfJ_FMlYvg_V-119">
          <mxGeometry relative="1" as="geometry" />
        </mxCell>
        <mxCell id="ehJKbEj-RfJ_FMlYvg_V-118" value="op1" style="rounded=1;whiteSpace=wrap;html=1;shadow=0;labelBackgroundColor=none;strokeWidth=1;fontFamily=Verdana;fontSize=8;align=center;fillColor=#f5f5f5;strokeColor=#666666;fontColor=#333333;" vertex="1" parent="ekmIZR2HNfIdnJ5pG9s8-1">
          <mxGeometry x="494" y="915" width="60" height="25" as="geometry" />
        </mxCell>
        <mxCell id="ehJKbEj-RfJ_FMlYvg_V-119" value="op2" style="rounded=1;whiteSpace=wrap;html=1;shadow=0;labelBackgroundColor=none;strokeWidth=1;fontFamily=Verdana;fontSize=8;align=center;fillColor=#f5f5f5;strokeColor=#666666;fontColor=#333333;" vertex="1" parent="ekmIZR2HNfIdnJ5pG9s8-1">
          <mxGeometry x="494" y="870" width="60" height="25" as="geometry" />
        </mxCell>
        <mxCell id="ehJKbEj-RfJ_FMlYvg_V-120" value="op4" style="rounded=1;whiteSpace=wrap;html=1;shadow=0;labelBackgroundColor=none;strokeWidth=1;fontFamily=Verdana;fontSize=8;align=center;fillColor=#dae8fc;strokeColor=#6c8ebf;" vertex="1" parent="ekmIZR2HNfIdnJ5pG9s8-1">
          <mxGeometry x="408" y="732" width="60" height="25" as="geometry" />
        </mxCell>
        <mxCell id="ehJKbEj-RfJ_FMlYvg_V-121" value="op3" style="rounded=1;whiteSpace=wrap;html=1;shadow=0;labelBackgroundColor=none;strokeWidth=1;fontFamily=Verdana;fontSize=8;align=center;fillColor=#dae8fc;strokeColor=#6c8ebf;" vertex="1" parent="ekmIZR2HNfIdnJ5pG9s8-1">
          <mxGeometry x="408" y="792" width="60" height="25" as="geometry" />
        </mxCell>
        <mxCell id="ehJKbEj-RfJ_FMlYvg_V-122" value="op10" style="rounded=1;whiteSpace=wrap;html=1;shadow=0;labelBackgroundColor=none;strokeWidth=1;fontFamily=Verdana;fontSize=8;align=center;fillColor=#ffe6cc;strokeColor=#d79b00;" vertex="1" parent="ekmIZR2HNfIdnJ5pG9s8-1">
          <mxGeometry x="578" y="714.5" width="60" height="25" as="geometry" />
        </mxCell>
        <mxCell id="ehJKbEj-RfJ_FMlYvg_V-123" value="op8" style="rounded=1;whiteSpace=wrap;html=1;shadow=0;labelBackgroundColor=none;strokeWidth=1;fontFamily=Verdana;fontSize=8;align=center;fillColor=#ffe6cc;strokeColor=#d79b00;" vertex="1" parent="ekmIZR2HNfIdnJ5pG9s8-1">
          <mxGeometry x="578" y="809.5" width="60" height="25" as="geometry" />
        </mxCell>
        <mxCell id="ehJKbEj-RfJ_FMlYvg_V-124" value="op9" style="rounded=1;whiteSpace=wrap;html=1;shadow=0;labelBackgroundColor=none;strokeWidth=1;fontFamily=Verdana;fontSize=8;align=center;fillColor=#ffe6cc;strokeColor=#d79b00;" vertex="1" parent="ekmIZR2HNfIdnJ5pG9s8-1">
          <mxGeometry x="578" y="764.5" width="60" height="25" as="geometry" />
        </mxCell>
        <mxCell id="ehJKbEj-RfJ_FMlYvg_V-125" value="op12" style="rounded=1;whiteSpace=wrap;html=1;shadow=0;labelBackgroundColor=none;strokeWidth=1;fontFamily=Verdana;fontSize=8;align=center;fillColor=#e1d5e7;strokeColor=#9673a6;" vertex="1" parent="ekmIZR2HNfIdnJ5pG9s8-1">
          <mxGeometry x="494" y="599" width="60" height="25" as="geometry" />
        </mxCell>
        <mxCell id="ehJKbEj-RfJ_FMlYvg_V-126" value="op11" style="rounded=1;whiteSpace=wrap;html=1;shadow=0;labelBackgroundColor=none;strokeWidth=1;fontFamily=Verdana;fontSize=8;align=center;fillColor=#e1d5e7;strokeColor=#9673a6;" vertex="1" parent="ekmIZR2HNfIdnJ5pG9s8-1">
          <mxGeometry x="494" y="649" width="60" height="25" as="geometry" />
        </mxCell>
        <mxCell id="ehJKbEj-RfJ_FMlYvg_V-127" value="" style="endArrow=classic;html=1;entryX=0.5;entryY=1;entryDx=0;entryDy=0;" edge="1" parent="ekmIZR2HNfIdnJ5pG9s8-1" target="ehJKbEj-RfJ_FMlYvg_V-118">
          <mxGeometry width="50" height="50" relative="1" as="geometry">
            <mxPoint x="524" y="960" as="sourcePoint" />
            <mxPoint x="764" y="920" as="targetPoint" />
          </mxGeometry>
        </mxCell>
        <mxCell id="ehJKbEj-RfJ_FMlYvg_V-128" value="" style="endArrow=classic;html=1;entryX=0.5;entryY=1;entryDx=0;entryDy=0;exitX=0.75;exitY=0;exitDx=0;exitDy=0;" edge="1" parent="ekmIZR2HNfIdnJ5pG9s8-1" source="ehJKbEj-RfJ_FMlYvg_V-119" target="ehJKbEj-RfJ_FMlYvg_V-123">
          <mxGeometry width="50" height="50" relative="1" as="geometry">
            <mxPoint x="524" y="849" as="sourcePoint" />
            <mxPoint x="574" y="799" as="targetPoint" />
          </mxGeometry>
        </mxCell>
        <mxCell id="ehJKbEj-RfJ_FMlYvg_V-129" value="" style="endArrow=classic;html=1;exitX=0.25;exitY=0;exitDx=0;exitDy=0;entryX=0.5;entryY=1;entryDx=0;entryDy=0;" edge="1" parent="ekmIZR2HNfIdnJ5pG9s8-1" source="ehJKbEj-RfJ_FMlYvg_V-119" target="ehJKbEj-RfJ_FMlYvg_V-121">
          <mxGeometry width="50" height="50" relative="1" as="geometry">
            <mxPoint x="404" y="864" as="sourcePoint" />
            <mxPoint x="454" y="814" as="targetPoint" />
          </mxGeometry>
        </mxCell>
        <mxCell id="ehJKbEj-RfJ_FMlYvg_V-130" value="" style="endArrow=classic;html=1;exitX=0.5;exitY=0;exitDx=0;exitDy=0;" edge="1" parent="ekmIZR2HNfIdnJ5pG9s8-1" source="ehJKbEj-RfJ_FMlYvg_V-121">
          <mxGeometry width="50" height="50" relative="1" as="geometry">
            <mxPoint x="388" y="807" as="sourcePoint" />
            <mxPoint x="438" y="757" as="targetPoint" />
          </mxGeometry>
        </mxCell>
        <mxCell id="ehJKbEj-RfJ_FMlYvg_V-131" value="" style="endArrow=classic;html=1;exitX=0.5;exitY=0;exitDx=0;exitDy=0;" edge="1" parent="ekmIZR2HNfIdnJ5pG9s8-1" source="ehJKbEj-RfJ_FMlYvg_V-123">
          <mxGeometry width="50" height="50" relative="1" as="geometry">
            <mxPoint x="558" y="839.5" as="sourcePoint" />
            <mxPoint x="608" y="789.5" as="targetPoint" />
          </mxGeometry>
        </mxCell>
        <mxCell id="ehJKbEj-RfJ_FMlYvg_V-132" value="" style="endArrow=classic;html=1;exitX=0.5;exitY=0;exitDx=0;exitDy=0;" edge="1" parent="ekmIZR2HNfIdnJ5pG9s8-1" source="ehJKbEj-RfJ_FMlYvg_V-124">
          <mxGeometry width="50" height="50" relative="1" as="geometry">
            <mxPoint x="558" y="789.5" as="sourcePoint" />
            <mxPoint x="608" y="739.5" as="targetPoint" />
          </mxGeometry>
        </mxCell>
        <mxCell id="ehJKbEj-RfJ_FMlYvg_V-133" value="" style="endArrow=classic;html=1;exitX=0.5;exitY=0;exitDx=0;exitDy=0;entryX=0.25;entryY=1;entryDx=0;entryDy=0;" edge="1" parent="ekmIZR2HNfIdnJ5pG9s8-1" source="ehJKbEj-RfJ_FMlYvg_V-120" target="ehJKbEj-RfJ_FMlYvg_V-126">
          <mxGeometry width="50" height="50" relative="1" as="geometry">
            <mxPoint x="474" y="724" as="sourcePoint" />
            <mxPoint x="524" y="674" as="targetPoint" />
          </mxGeometry>
        </mxCell>
        <mxCell id="ehJKbEj-RfJ_FMlYvg_V-134" value="" style="endArrow=classic;html=1;exitX=0.5;exitY=0;exitDx=0;exitDy=0;entryX=0.883;entryY=1.08;entryDx=0;entryDy=0;entryPerimeter=0;" edge="1" parent="ekmIZR2HNfIdnJ5pG9s8-1" source="ehJKbEj-RfJ_FMlYvg_V-122" target="ehJKbEj-RfJ_FMlYvg_V-126">
          <mxGeometry width="50" height="50" relative="1" as="geometry">
            <mxPoint x="484" y="724" as="sourcePoint" />
            <mxPoint x="534" y="674" as="targetPoint" />
          </mxGeometry>
        </mxCell>
        <mxCell id="ehJKbEj-RfJ_FMlYvg_V-135" value="" style="endArrow=classic;html=1;exitX=0.5;exitY=0;exitDx=0;exitDy=0;" edge="1" parent="ekmIZR2HNfIdnJ5pG9s8-1" source="ehJKbEj-RfJ_FMlYvg_V-126">
          <mxGeometry width="50" height="50" relative="1" as="geometry">
            <mxPoint x="474" y="674" as="sourcePoint" />
            <mxPoint x="524" y="624" as="targetPoint" />
          </mxGeometry>
        </mxCell>
        <mxCell id="ehJKbEj-RfJ_FMlYvg_V-136" value="op7" style="rounded=1;whiteSpace=wrap;html=1;shadow=0;labelBackgroundColor=none;strokeWidth=1;fontFamily=Verdana;fontSize=8;align=center;fillColor=#d5e8d4;strokeColor=#82b366;" vertex="1" parent="ekmIZR2HNfIdnJ5pG9s8-1">
          <mxGeometry x="494" y="714.5" width="60" height="25" as="geometry" />
        </mxCell>
        <mxCell id="ehJKbEj-RfJ_FMlYvg_V-137" value="op5" style="rounded=1;whiteSpace=wrap;html=1;shadow=0;labelBackgroundColor=none;strokeWidth=1;fontFamily=Verdana;fontSize=8;align=center;fillColor=#d5e8d4;strokeColor=#82b366;" vertex="1" parent="ekmIZR2HNfIdnJ5pG9s8-1">
          <mxGeometry x="494" y="809.5" width="60" height="25" as="geometry" />
        </mxCell>
        <mxCell id="ehJKbEj-RfJ_FMlYvg_V-138" value="op6" style="rounded=1;whiteSpace=wrap;html=1;shadow=0;labelBackgroundColor=none;strokeWidth=1;fontFamily=Verdana;fontSize=8;align=center;fillColor=#d5e8d4;strokeColor=#82b366;" vertex="1" parent="ekmIZR2HNfIdnJ5pG9s8-1">
          <mxGeometry x="494" y="764.5" width="60" height="25" as="geometry" />
        </mxCell>
        <mxCell id="ehJKbEj-RfJ_FMlYvg_V-139" value="" style="endArrow=classic;html=1;exitX=0.5;exitY=0;exitDx=0;exitDy=0;" edge="1" parent="ekmIZR2HNfIdnJ5pG9s8-1" source="ehJKbEj-RfJ_FMlYvg_V-137">
          <mxGeometry width="50" height="50" relative="1" as="geometry">
            <mxPoint x="474" y="839.5" as="sourcePoint" />
            <mxPoint x="524" y="789.5" as="targetPoint" />
          </mxGeometry>
        </mxCell>
        <mxCell id="ehJKbEj-RfJ_FMlYvg_V-140" value="" style="endArrow=classic;html=1;exitX=0.5;exitY=0;exitDx=0;exitDy=0;" edge="1" parent="ekmIZR2HNfIdnJ5pG9s8-1" source="ehJKbEj-RfJ_FMlYvg_V-138">
          <mxGeometry width="50" height="50" relative="1" as="geometry">
            <mxPoint x="474" y="789.5" as="sourcePoint" />
            <mxPoint x="524" y="739.5" as="targetPoint" />
          </mxGeometry>
        </mxCell>
        <mxCell id="ehJKbEj-RfJ_FMlYvg_V-141" value="" style="rounded=0;whiteSpace=wrap;html=1;dashed=1;opacity=50;shadow=0;glass=0;fillOpacity=0;backgroundOutline=0;arcSize=12;" vertex="1" parent="ekmIZR2HNfIdnJ5pG9s8-1">
          <mxGeometry x="490" y="860" width="70" height="90" as="geometry" />
        </mxCell>
        <mxCell id="ehJKbEj-RfJ_FMlYvg_V-142" value="" style="rounded=0;whiteSpace=wrap;html=1;dashed=1;opacity=50;shadow=0;glass=0;fillOpacity=0;backgroundOutline=0;arcSize=12;" vertex="1" parent="ekmIZR2HNfIdnJ5pG9s8-1">
          <mxGeometry x="399" y="726.5" width="78" height="101" as="geometry" />
        </mxCell>
        <mxCell id="ehJKbEj-RfJ_FMlYvg_V-143" value="" style="rounded=0;whiteSpace=wrap;html=1;dashed=1;opacity=50;shadow=0;glass=0;fillOpacity=0;backgroundOutline=0;arcSize=12;" vertex="1" parent="ekmIZR2HNfIdnJ5pG9s8-1">
          <mxGeometry x="489" y="712" width="70" height="130" as="geometry" />
        </mxCell>
        <mxCell id="ehJKbEj-RfJ_FMlYvg_V-145" value="" style="rounded=0;whiteSpace=wrap;html=1;dashed=1;opacity=50;shadow=0;glass=0;fillOpacity=0;backgroundOutline=0;arcSize=12;" vertex="1" parent="ekmIZR2HNfIdnJ5pG9s8-1">
          <mxGeometry x="573" y="712" width="70" height="130" as="geometry" />
        </mxCell>
        <mxCell id="ehJKbEj-RfJ_FMlYvg_V-146" value="" style="rounded=0;whiteSpace=wrap;html=1;dashed=1;opacity=50;shadow=0;glass=0;fillOpacity=0;backgroundOutline=0;arcSize=12;" vertex="1" parent="ekmIZR2HNfIdnJ5pG9s8-1">
          <mxGeometry x="489" y="590" width="70" height="90" as="geometry" />
        </mxCell>
        <mxCell id="ehJKbEj-RfJ_FMlYvg_V-147" value="" style="endArrow=none;html=1;" edge="1" parent="ekmIZR2HNfIdnJ5pG9s8-1">
          <mxGeometry width="50" height="50" relative="1" as="geometry">
            <mxPoint x="390" y="698" as="sourcePoint" />
            <mxPoint x="648" y="698" as="targetPoint" />
          </mxGeometry>
        </mxCell>
        <mxCell id="ehJKbEj-RfJ_FMlYvg_V-149" value="" style="endArrow=none;html=1;" edge="1" parent="ekmIZR2HNfIdnJ5pG9s8-1">
          <mxGeometry width="50" height="50" relative="1" as="geometry">
            <mxPoint x="390" y="848" as="sourcePoint" />
            <mxPoint x="648" y="848" as="targetPoint" />
          </mxGeometry>
        </mxCell>
        <mxCell id="ehJKbEj-RfJ_FMlYvg_V-152" style="edgeStyle=orthogonalEdgeStyle;rounded=0;orthogonalLoop=1;jettySize=auto;html=1;exitX=0.5;exitY=0;exitDx=0;exitDy=0;entryX=0.5;entryY=1;entryDx=0;entryDy=0;" edge="1" parent="ekmIZR2HNfIdnJ5pG9s8-1" source="ehJKbEj-RfJ_FMlYvg_V-153" target="ehJKbEj-RfJ_FMlYvg_V-154">
          <mxGeometry relative="1" as="geometry" />
        </mxCell>
        <mxCell id="ehJKbEj-RfJ_FMlYvg_V-153" value="op1" style="rounded=1;whiteSpace=wrap;html=1;shadow=0;labelBackgroundColor=none;strokeWidth=1;fontFamily=Verdana;fontSize=8;align=center;" vertex="1" parent="ekmIZR2HNfIdnJ5pG9s8-1">
          <mxGeometry x="174" y="915" width="60" height="25" as="geometry" />
        </mxCell>
        <mxCell id="ehJKbEj-RfJ_FMlYvg_V-210" style="edgeStyle=orthogonalEdgeStyle;rounded=0;orthogonalLoop=1;jettySize=auto;html=1;exitX=0.5;exitY=0;exitDx=0;exitDy=0;entryX=0.5;entryY=1;entryDx=0;entryDy=0;" edge="1" parent="ekmIZR2HNfIdnJ5pG9s8-1" source="ehJKbEj-RfJ_FMlYvg_V-154" target="ehJKbEj-RfJ_FMlYvg_V-172">
          <mxGeometry relative="1" as="geometry" />
        </mxCell>
        <mxCell id="ehJKbEj-RfJ_FMlYvg_V-154" value="op2" style="rounded=1;whiteSpace=wrap;html=1;shadow=0;labelBackgroundColor=none;strokeWidth=1;fontFamily=Verdana;fontSize=8;align=center;" vertex="1" parent="ekmIZR2HNfIdnJ5pG9s8-1">
          <mxGeometry x="174" y="870" width="60" height="25" as="geometry" />
        </mxCell>
        <mxCell id="ehJKbEj-RfJ_FMlYvg_V-155" value="op4" style="rounded=1;whiteSpace=wrap;html=1;shadow=0;labelBackgroundColor=none;strokeWidth=1;fontFamily=Verdana;fontSize=8;align=center;" vertex="1" parent="ekmIZR2HNfIdnJ5pG9s8-1">
          <mxGeometry x="88" y="732" width="60" height="25" as="geometry" />
        </mxCell>
        <mxCell id="ehJKbEj-RfJ_FMlYvg_V-156" value="op3" style="rounded=1;whiteSpace=wrap;html=1;shadow=0;labelBackgroundColor=none;strokeWidth=1;fontFamily=Verdana;fontSize=8;align=center;" vertex="1" parent="ekmIZR2HNfIdnJ5pG9s8-1">
          <mxGeometry x="88" y="792" width="60" height="25" as="geometry" />
        </mxCell>
        <mxCell id="ehJKbEj-RfJ_FMlYvg_V-157" value="op10" style="rounded=1;whiteSpace=wrap;html=1;shadow=0;labelBackgroundColor=none;strokeWidth=1;fontFamily=Verdana;fontSize=8;align=center;" vertex="1" parent="ekmIZR2HNfIdnJ5pG9s8-1">
          <mxGeometry x="258" y="714.5" width="60" height="25" as="geometry" />
        </mxCell>
        <mxCell id="ehJKbEj-RfJ_FMlYvg_V-158" value="op8" style="rounded=1;whiteSpace=wrap;html=1;shadow=0;labelBackgroundColor=none;strokeWidth=1;fontFamily=Verdana;fontSize=8;align=center;" vertex="1" parent="ekmIZR2HNfIdnJ5pG9s8-1">
          <mxGeometry x="258" y="809.5" width="60" height="25" as="geometry" />
        </mxCell>
        <mxCell id="ehJKbEj-RfJ_FMlYvg_V-159" value="op9" style="rounded=1;whiteSpace=wrap;html=1;shadow=0;labelBackgroundColor=none;strokeWidth=1;fontFamily=Verdana;fontSize=8;align=center;" vertex="1" parent="ekmIZR2HNfIdnJ5pG9s8-1">
          <mxGeometry x="258" y="764.5" width="60" height="25" as="geometry" />
        </mxCell>
        <mxCell id="ehJKbEj-RfJ_FMlYvg_V-160" value="op12" style="rounded=1;whiteSpace=wrap;html=1;shadow=0;labelBackgroundColor=none;strokeWidth=1;fontFamily=Verdana;fontSize=8;align=center;" vertex="1" parent="ekmIZR2HNfIdnJ5pG9s8-1">
          <mxGeometry x="174" y="599" width="60" height="25" as="geometry" />
        </mxCell>
        <mxCell id="ehJKbEj-RfJ_FMlYvg_V-161" value="op11" style="rounded=1;whiteSpace=wrap;html=1;shadow=0;labelBackgroundColor=none;strokeWidth=1;fontFamily=Verdana;fontSize=8;align=center;" vertex="1" parent="ekmIZR2HNfIdnJ5pG9s8-1">
          <mxGeometry x="174" y="649" width="60" height="25" as="geometry" />
        </mxCell>
        <mxCell id="ehJKbEj-RfJ_FMlYvg_V-162" value="" style="endArrow=classic;html=1;entryX=0.5;entryY=1;entryDx=0;entryDy=0;" edge="1" parent="ekmIZR2HNfIdnJ5pG9s8-1" target="ehJKbEj-RfJ_FMlYvg_V-153">
          <mxGeometry width="50" height="50" relative="1" as="geometry">
            <mxPoint x="204" y="960" as="sourcePoint" />
            <mxPoint x="444" y="920" as="targetPoint" />
          </mxGeometry>
        </mxCell>
        <mxCell id="ehJKbEj-RfJ_FMlYvg_V-163" value="" style="endArrow=classic;html=1;entryX=0.5;entryY=1;entryDx=0;entryDy=0;exitX=0.75;exitY=0;exitDx=0;exitDy=0;" edge="1" parent="ekmIZR2HNfIdnJ5pG9s8-1" source="ehJKbEj-RfJ_FMlYvg_V-154" target="ehJKbEj-RfJ_FMlYvg_V-158">
          <mxGeometry width="50" height="50" relative="1" as="geometry">
            <mxPoint x="204" y="849" as="sourcePoint" />
            <mxPoint x="254" y="799" as="targetPoint" />
          </mxGeometry>
        </mxCell>
        <mxCell id="ehJKbEj-RfJ_FMlYvg_V-164" value="" style="endArrow=classic;html=1;exitX=0.25;exitY=0;exitDx=0;exitDy=0;entryX=0.5;entryY=1;entryDx=0;entryDy=0;" edge="1" parent="ekmIZR2HNfIdnJ5pG9s8-1" source="ehJKbEj-RfJ_FMlYvg_V-154" target="ehJKbEj-RfJ_FMlYvg_V-156">
          <mxGeometry width="50" height="50" relative="1" as="geometry">
            <mxPoint x="84" y="864" as="sourcePoint" />
            <mxPoint x="134" y="814" as="targetPoint" />
          </mxGeometry>
        </mxCell>
        <mxCell id="ehJKbEj-RfJ_FMlYvg_V-165" value="" style="endArrow=classic;html=1;exitX=0.5;exitY=0;exitDx=0;exitDy=0;" edge="1" parent="ekmIZR2HNfIdnJ5pG9s8-1" source="ehJKbEj-RfJ_FMlYvg_V-156">
          <mxGeometry width="50" height="50" relative="1" as="geometry">
            <mxPoint x="68" y="807" as="sourcePoint" />
            <mxPoint x="118" y="757" as="targetPoint" />
          </mxGeometry>
        </mxCell>
        <mxCell id="ehJKbEj-RfJ_FMlYvg_V-166" value="" style="endArrow=classic;html=1;exitX=0.5;exitY=0;exitDx=0;exitDy=0;" edge="1" parent="ekmIZR2HNfIdnJ5pG9s8-1" source="ehJKbEj-RfJ_FMlYvg_V-158">
          <mxGeometry width="50" height="50" relative="1" as="geometry">
            <mxPoint x="238" y="839.5" as="sourcePoint" />
            <mxPoint x="288" y="789.5" as="targetPoint" />
          </mxGeometry>
        </mxCell>
        <mxCell id="ehJKbEj-RfJ_FMlYvg_V-167" value="" style="endArrow=classic;html=1;exitX=0.5;exitY=0;exitDx=0;exitDy=0;" edge="1" parent="ekmIZR2HNfIdnJ5pG9s8-1" source="ehJKbEj-RfJ_FMlYvg_V-159">
          <mxGeometry width="50" height="50" relative="1" as="geometry">
            <mxPoint x="238" y="789.5" as="sourcePoint" />
            <mxPoint x="288" y="739.5" as="targetPoint" />
          </mxGeometry>
        </mxCell>
        <mxCell id="ehJKbEj-RfJ_FMlYvg_V-168" value="" style="endArrow=classic;html=1;exitX=0.5;exitY=0;exitDx=0;exitDy=0;entryX=0.25;entryY=1;entryDx=0;entryDy=0;" edge="1" parent="ekmIZR2HNfIdnJ5pG9s8-1" source="ehJKbEj-RfJ_FMlYvg_V-155" target="ehJKbEj-RfJ_FMlYvg_V-161">
          <mxGeometry width="50" height="50" relative="1" as="geometry">
            <mxPoint x="154" y="724" as="sourcePoint" />
            <mxPoint x="204" y="674" as="targetPoint" />
          </mxGeometry>
        </mxCell>
        <mxCell id="ehJKbEj-RfJ_FMlYvg_V-169" value="" style="endArrow=classic;html=1;exitX=0.5;exitY=0;exitDx=0;exitDy=0;entryX=0.883;entryY=1.08;entryDx=0;entryDy=0;entryPerimeter=0;" edge="1" parent="ekmIZR2HNfIdnJ5pG9s8-1" source="ehJKbEj-RfJ_FMlYvg_V-157" target="ehJKbEj-RfJ_FMlYvg_V-161">
          <mxGeometry width="50" height="50" relative="1" as="geometry">
            <mxPoint x="164" y="724" as="sourcePoint" />
            <mxPoint x="214" y="674" as="targetPoint" />
          </mxGeometry>
        </mxCell>
        <mxCell id="ehJKbEj-RfJ_FMlYvg_V-170" value="" style="endArrow=classic;html=1;exitX=0.5;exitY=0;exitDx=0;exitDy=0;" edge="1" parent="ekmIZR2HNfIdnJ5pG9s8-1" source="ehJKbEj-RfJ_FMlYvg_V-161">
          <mxGeometry width="50" height="50" relative="1" as="geometry">
            <mxPoint x="154" y="674" as="sourcePoint" />
            <mxPoint x="204" y="624" as="targetPoint" />
          </mxGeometry>
        </mxCell>
        <mxCell id="ehJKbEj-RfJ_FMlYvg_V-217" style="edgeStyle=orthogonalEdgeStyle;rounded=0;orthogonalLoop=1;jettySize=auto;html=1;exitX=0.5;exitY=0;exitDx=0;exitDy=0;entryX=0.5;entryY=1;entryDx=0;entryDy=0;" edge="1" parent="ekmIZR2HNfIdnJ5pG9s8-1" source="ehJKbEj-RfJ_FMlYvg_V-171" target="ehJKbEj-RfJ_FMlYvg_V-161">
          <mxGeometry relative="1" as="geometry">
            <mxPoint x="204" y="680" as="targetPoint" />
          </mxGeometry>
        </mxCell>
        <mxCell id="ehJKbEj-RfJ_FMlYvg_V-171" value="op7" style="rounded=1;whiteSpace=wrap;html=1;shadow=0;labelBackgroundColor=none;strokeWidth=1;fontFamily=Verdana;fontSize=8;align=center;" vertex="1" parent="ekmIZR2HNfIdnJ5pG9s8-1">
          <mxGeometry x="174" y="714.5" width="60" height="25" as="geometry" />
        </mxCell>
        <mxCell id="ehJKbEj-RfJ_FMlYvg_V-172" value="op5" style="rounded=1;whiteSpace=wrap;html=1;shadow=0;labelBackgroundColor=none;strokeWidth=1;fontFamily=Verdana;fontSize=8;align=center;" vertex="1" parent="ekmIZR2HNfIdnJ5pG9s8-1">
          <mxGeometry x="174" y="809.5" width="60" height="25" as="geometry" />
        </mxCell>
        <mxCell id="ehJKbEj-RfJ_FMlYvg_V-173" value="op6" style="rounded=1;whiteSpace=wrap;html=1;shadow=0;labelBackgroundColor=none;strokeWidth=1;fontFamily=Verdana;fontSize=8;align=center;" vertex="1" parent="ekmIZR2HNfIdnJ5pG9s8-1">
          <mxGeometry x="174" y="764.5" width="60" height="25" as="geometry" />
        </mxCell>
        <mxCell id="ehJKbEj-RfJ_FMlYvg_V-174" value="" style="endArrow=classic;html=1;exitX=0.5;exitY=0;exitDx=0;exitDy=0;" edge="1" parent="ekmIZR2HNfIdnJ5pG9s8-1" source="ehJKbEj-RfJ_FMlYvg_V-172">
          <mxGeometry width="50" height="50" relative="1" as="geometry">
            <mxPoint x="154" y="839.5" as="sourcePoint" />
            <mxPoint x="204" y="789.5" as="targetPoint" />
          </mxGeometry>
        </mxCell>
        <mxCell id="ehJKbEj-RfJ_FMlYvg_V-175" value="" style="endArrow=classic;html=1;exitX=0.5;exitY=0;exitDx=0;exitDy=0;" edge="1" parent="ekmIZR2HNfIdnJ5pG9s8-1" source="ehJKbEj-RfJ_FMlYvg_V-173">
          <mxGeometry width="50" height="50" relative="1" as="geometry">
            <mxPoint x="154" y="789.5" as="sourcePoint" />
            <mxPoint x="204" y="739.5" as="targetPoint" />
          </mxGeometry>
        </mxCell>
        <mxCell id="ehJKbEj-RfJ_FMlYvg_V-208" value="" style="shape=flexArrow;endArrow=classic;html=1;" edge="1" parent="ekmIZR2HNfIdnJ5pG9s8-1">
          <mxGeometry width="50" height="50" relative="1" as="geometry">
            <mxPoint x="325" y="776.5" as="sourcePoint" />
            <mxPoint x="365" y="776.5" as="targetPoint" />
          </mxGeometry>
        </mxCell>
        <mxCell id="ehJKbEj-RfJ_FMlYvg_V-212" style="edgeStyle=orthogonalEdgeStyle;rounded=0;orthogonalLoop=1;jettySize=auto;html=1;exitX=0.5;exitY=0;exitDx=0;exitDy=0;entryX=0.5;entryY=1;entryDx=0;entryDy=0;" edge="1" parent="ekmIZR2HNfIdnJ5pG9s8-1">
          <mxGeometry relative="1" as="geometry">
            <mxPoint x="523.5" y="870" as="sourcePoint" />
            <mxPoint x="523.5" y="834.5" as="targetPoint" />
          </mxGeometry>
        </mxCell>
        <mxCell id="ehJKbEj-RfJ_FMlYvg_V-222" style="edgeStyle=orthogonalEdgeStyle;rounded=0;orthogonalLoop=1;jettySize=auto;html=1;exitX=0.5;exitY=0;exitDx=0;exitDy=0;entryX=0.5;entryY=1;entryDx=0;entryDy=0;" edge="1" parent="ekmIZR2HNfIdnJ5pG9s8-1">
          <mxGeometry relative="1" as="geometry">
            <mxPoint x="523.5" y="674" as="targetPoint" />
            <mxPoint x="523.5" y="714.5" as="sourcePoint" />
          </mxGeometry>
        </mxCell>
        <mxCell id="ehJKbEj-RfJ_FMlYvg_V-224" value="S3" style="text;html=1;align=center;verticalAlign=middle;resizable=0;points=[];autosize=1;" vertex="1" parent="ekmIZR2HNfIdnJ5pG9s8-1">
          <mxGeometry x="375" y="631" width="25" height="18" as="geometry" />
        </mxCell>
        <mxCell id="ehJKbEj-RfJ_FMlYvg_V-225" value="S2" style="text;html=1;align=center;verticalAlign=middle;resizable=0;points=[];autosize=1;" vertex="1" parent="ekmIZR2HNfIdnJ5pG9s8-1">
          <mxGeometry x="372" y="763.5" width="30" height="20" as="geometry" />
        </mxCell>
        <mxCell id="ehJKbEj-RfJ_FMlYvg_V-226" value="S1" style="text;html=1;align=center;verticalAlign=middle;resizable=0;points=[];autosize=1;" vertex="1" parent="ekmIZR2HNfIdnJ5pG9s8-1">
          <mxGeometry x="373" y="889" width="30" height="20" as="geometry" />
        </mxCell>
      </root>
    </mxGraphModel>
  </diagram>
  <diagram id="zZZMMwd0JRjAlXwjdM5z" name="Page-3">
    <mxGraphModel dx="1426" dy="826" grid="1" gridSize="10" guides="1" tooltips="1" connect="1" arrows="1" fold="1" page="1" pageScale="1" pageWidth="827" pageHeight="1169" math="0" shadow="0">
      <root>
        <mxCell id="r5QImoMeggoXZNZbWgyg-0" />
        <mxCell id="r5QImoMeggoXZNZbWgyg-1" parent="r5QImoMeggoXZNZbWgyg-0" />
      </root>
    </mxGraphModel>
  </diagram>
</mxfile>
